<svg width="134" height="181" viewBox="0 0 134 181" fill="none" xmlns="http://www.w3.org/2000/svg">
    <rect x="1.5" y="1.5" width="130.217" height="177.633" rx="65.1084" stroke="#CECECE" stroke-width="3"/>
    <mask id="path-2-inside-1_16_274" fill="white">
        <path d="M0 66.6085C0 29.8217 29.8216 0 66.6084 0C103.395 0 133.217 29.8216 133.217 66.6084V114.025C133.217 150.811 103.395 180.633 66.6084 180.633C29.8216 180.633 0 150.811 0 114.025V66.6085Z"/>
    </mask>
    <path d="M0 0H133.217H0M136.217 115.525C136.217 153.14 105.724 183.633 68.1084 183.633C30.4932 183.633 0 153.14 0 115.525V114.025C0 149.155 29.8216 177.633 66.6084 177.633C101.738 177.633 130.217 149.155 130.217 114.025L136.217 115.525ZM130.217 114.025M0 180.633V0V180.633M66.6084 0C105.052 0 136.217 31.1648 136.217 69.6084V115.525C136.217 153.14 105.724 183.633 68.1084 183.633L66.6084 177.633C101.738 177.633 130.217 149.155 130.217 114.025V66.6084C130.217 29.8216 101.738 0 66.6084 0Z" fill="#F9C795" mask="url(#path-2-inside-1_16_274)"/>
</svg>
