<?xml version="1.0" encoding="utf-8"?>
<!-- Generator: Adobe Illustrator 16.0.0, SVG Export Plug-In . SVG Version: 6.00 Build 0)  -->
<!DOCTYPE svg PUBLIC "-//W3C//DTD SVG 1.1//EN" "http://www.w3.org/Graphics/SVG/1.1/DTD/svg11.dtd">
<svg version="1.1" id="圖層_1" xmlns="http://www.w3.org/2000/svg" xmlns:xlink="http://www.w3.org/1999/xlink" x="0px" y="0px"
     width="129.527px" height="129.526px" viewBox="0 0 129.527 129.526" enable-background="new 0 0 129.527 129.526"
     xml:space="preserve">
<g>
	<g>
		<path fill="#FFFFFF" d="M129.127,129.526c-0.149,0-0.29-0.084-0.358-0.223l-21.291-42.893L64.585,65.121
			c-0.167-0.083-0.254-0.269-0.212-0.45c0.043-0.181,0.204-0.309,0.39-0.309h64.363c0.221,0,0.4,0.179,0.4,0.4l0.001,64.364
			c0,0.186-0.128,0.347-0.309,0.39C129.188,129.522,129.157,129.526,129.127,129.526z M66.468,65.162l41.486,20.592
			c0.078,0.039,0.142,0.103,0.181,0.181l20.592,41.485l-0.001-62.258H66.468z"/>
	</g>
    <g>
		<path fill="#FFFFFF" d="M129.127,129.526H64.763c-0.221,0-0.399-0.18-0.399-0.4V64.762c0-0.186,0.127-0.347,0.309-0.39
			c0.18-0.042,0.366,0.045,0.449,0.212l21.29,42.892l42.894,21.291c0.166,0.083,0.254,0.269,0.212,0.45
			C129.474,129.398,129.313,129.526,129.127,129.526z M65.162,128.726h62.26l-41.487-20.592c-0.078-0.039-0.142-0.103-0.181-0.181
			L65.162,66.468V128.726z"/>
	</g>
    <g>
		<path fill="#FFFFFF" d="M129.126,65.162H64.763c-0.186,0-0.347-0.128-0.39-0.309c-0.042-0.181,0.045-0.367,0.212-0.45
			l42.893-21.29l21.291-42.892c0.082-0.167,0.264-0.253,0.45-0.212c0.181,0.042,0.309,0.204,0.309,0.39l-0.001,64.362
			C129.526,64.983,129.347,65.162,129.126,65.162z M66.469,64.362h62.257l0.001-62.257L108.135,43.59
			c-0.039,0.078-0.103,0.142-0.181,0.181L66.469,64.362z"/>
	</g>
    <g>
		<path fill="#FFFFFF" d="M64.763,65.162c-0.03,0-0.062-0.003-0.091-0.01c-0.182-0.042-0.309-0.204-0.309-0.39V0.4
			c0-0.221,0.179-0.4,0.399-0.4h64.364c0.186,0,0.347,0.128,0.39,0.309c0.042,0.181-0.046,0.367-0.212,0.45L86.411,22.047
			L65.121,64.94C65.053,65.078,64.912,65.162,64.763,65.162z M65.162,0.8v62.257l20.592-41.485c0.039-0.078,0.103-0.142,0.181-0.181
			L127.421,0.8H65.162z"/>
	</g>
    <g>
		<path fill="#FFFFFF" d="M64.763,129.526H0.4c-0.186,0-0.348-0.128-0.39-0.309c-0.042-0.182,0.046-0.367,0.212-0.45l42.893-21.291
			l21.289-42.892c0.082-0.166,0.271-0.253,0.449-0.212c0.182,0.042,0.309,0.204,0.309,0.39v64.364
			C65.162,129.347,64.983,129.526,64.763,129.526z M2.105,128.726h62.258V66.468l-20.592,41.485
			c-0.039,0.078-0.103,0.142-0.181,0.181L2.105,128.726z"/>
	</g>
    <g>
		<path fill="#FFFFFF" d="M0.4,129.526c-0.03,0-0.061-0.004-0.092-0.011C0.129,129.473,0,129.312,0,129.126V64.762
			c0-0.221,0.18-0.4,0.4-0.4h64.362c0.186,0,0.347,0.128,0.39,0.309c0.042,0.181-0.045,0.367-0.212,0.45L22.049,86.411
			l-21.29,42.893C0.689,129.442,0.55,129.526,0.4,129.526z M0.801,65.162v62.259l20.592-41.486c0.039-0.078,0.103-0.142,0.181-0.181
			l41.483-20.592H0.801z"/>
	</g>
    <g>
		<path fill="#FFFFFF" d="M64.763,65.162H0.4c-0.221,0-0.4-0.179-0.4-0.4V0.4c0-0.186,0.129-0.347,0.309-0.39
			c0.18-0.042,0.367,0.045,0.45,0.212l21.29,42.892l42.892,21.29c0.167,0.083,0.254,0.269,0.212,0.45
			C65.109,65.034,64.948,65.162,64.763,65.162z M0.801,64.362h62.256L21.573,43.771c-0.078-0.039-0.142-0.103-0.181-0.181
			L0.801,2.105V64.362z"/>
	</g>
    <g>
		<path fill="#FFFFFF" d="M64.763,65.162c-0.149,0-0.29-0.084-0.358-0.222L43.115,22.047L0.223,0.758
			c-0.166-0.083-0.254-0.269-0.212-0.45S0.215,0,0.4,0h64.362c0.221,0,0.399,0.179,0.399,0.4v64.362c0,0.186-0.127,0.347-0.309,0.39
			C64.824,65.159,64.793,65.162,64.763,65.162z M2.105,0.8l41.485,20.591c0.078,0.039,0.142,0.103,0.181,0.181l20.592,41.485V0.8
			H2.105z"/>
	</g>
    <g>
		<path fill="#FFFFFF" d="M129.127,129.526c-0.061,0-0.121-0.014-0.178-0.042l-43.015-21.351c-0.078-0.039-0.142-0.103-0.181-0.181
			L64.404,64.94c-0.076-0.154-0.046-0.339,0.076-0.46c0.121-0.122,0.307-0.15,0.46-0.076l43.014,21.35
			c0.078,0.039,0.142,0.103,0.181,0.181l21.351,43.014c0.076,0.153,0.046,0.339-0.075,0.461
			C129.333,129.485,129.23,129.526,129.127,129.526z M86.411,107.477l41.829,20.763l-20.763-41.828L65.649,65.648L86.411,107.477z"
        />
	</g>
    <g>
		<path fill="#FFFFFF" d="M0.4,129.526c-0.104,0-0.206-0.041-0.283-0.117c-0.121-0.122-0.151-0.308-0.075-0.461l21.351-43.014
			c0.039-0.078,0.103-0.142,0.181-0.181l43.012-21.35c0.153-0.075,0.339-0.046,0.46,0.076c0.122,0.121,0.152,0.307,0.076,0.46
			l-21.35,43.013c-0.039,0.078-0.103,0.142-0.181,0.181L0.578,129.484C0.521,129.513,0.461,129.526,0.4,129.526z M22.049,86.411
			L1.287,128.239l41.828-20.763l20.761-41.828L22.049,86.411z"/>
	</g>
    <g>
		<path fill="#FFFFFF" d="M64.763,65.162c-0.061,0-0.121-0.014-0.178-0.042l-43.012-21.35c-0.078-0.039-0.142-0.103-0.181-0.181
			L0.042,0.578c-0.076-0.154-0.046-0.339,0.075-0.46c0.122-0.122,0.308-0.15,0.461-0.076l43.013,21.349
			c0.078,0.039,0.142,0.103,0.181,0.181l21.35,43.013c0.076,0.154,0.046,0.339-0.076,0.46
			C64.969,65.122,64.866,65.162,64.763,65.162z M22.049,43.114l41.827,20.761L43.115,22.047L1.287,1.287L22.049,43.114z"/>
	</g>
    <g>
		<path fill="#FFFFFF" d="M64.763,65.162c-0.104,0-0.206-0.04-0.282-0.117c-0.122-0.121-0.152-0.307-0.076-0.46l21.35-43.013
			c0.039-0.078,0.103-0.142,0.181-0.181l43.015-21.349c0.153-0.075,0.339-0.046,0.461,0.076c0.121,0.121,0.151,0.307,0.075,0.46
			L108.135,43.59c-0.039,0.078-0.103,0.142-0.181,0.181L64.94,65.121C64.884,65.148,64.823,65.162,64.763,65.162z M86.411,22.047
			L65.649,63.875l41.828-20.761L128.24,1.287L86.411,22.047z"/>
	</g>
</g>
</svg>
